<svg width="128" height="128" viewBox="0 0 128 110" fill="none" xmlns="http://www.w3.org/2000/svg">
<mask id="path-1-inside-1_4_9" fill="white">
<rect x="12" y="8" width="61" height="88" rx="3"/>
</mask>
<rect x="12" y="8" width="61" height="88" rx="3" fill="white" stroke="#002E59" stroke-width="12" mask="url(#path-1-inside-1_4_9)"/>
<path d="M24 38.5H62" stroke="#002E59" stroke-width="3" stroke-linecap="round"/>
<path d="M24 46.5H62" stroke="#002E59" stroke-width="3" stroke-linecap="round"/>
<path d="M24 54.5H62" stroke="#002E59" stroke-width="3" stroke-linecap="round"/>
<path d="M24 70.5H62" stroke="#002E59" stroke-width="3" stroke-linecap="round"/>
<path d="M24 78.5H62" stroke="#002E59" stroke-width="3" stroke-linecap="round"/>
<path d="M24 30.5H62" stroke="#FF7A01" stroke-width="3" stroke-linecap="round"/>
<path d="M24 62.5H62" stroke="#FF7A01" stroke-width="3" stroke-linecap="round"/>
<path d="M24 22.5H62" stroke="#002E59" stroke-width="3" stroke-linecap="round"/>
<path d="M110.908 59.5985C110.99 58.9767 111.032 58.3341 111.032 57.65C111.032 56.9867 110.99 56.3233 110.887 55.7015L115.095 52.4262C115.468 52.136 115.572 51.5764 115.344 51.1618L111.364 44.2797C111.115 43.8236 110.597 43.6785 110.141 43.8236L105.186 45.8136C104.15 45.0259 103.051 44.3626 101.828 43.8651L101.082 38.5999C100.999 38.1024 100.584 37.75 100.087 37.75H92.1269C91.6294 37.75 91.2355 38.1024 91.1526 38.5999L90.4064 43.8651C89.1834 44.3626 88.064 45.0467 87.0483 45.8136L82.094 43.8236C81.6379 43.6578 81.1197 43.8236 80.871 44.2797L76.9117 51.1618C76.6629 51.5971 76.7459 52.136 77.1604 52.4262L81.3685 55.7015C81.2648 56.3233 81.1819 57.0074 81.1819 57.65C81.1819 58.2926 81.2234 58.9767 81.327 59.5985L77.119 62.8737C76.7459 63.164 76.6422 63.7236 76.8702 64.1382L80.8502 71.0203C81.099 71.4764 81.6172 71.6215 82.0733 71.4764L87.0275 69.4864C88.064 70.2741 89.1626 70.9374 90.3856 71.4349L91.1319 76.7001C91.2355 77.1976 91.6294 77.55 92.1269 77.55H100.087C100.584 77.55 100.999 77.1976 101.061 76.7001L101.807 71.4349C103.03 70.9374 104.15 70.2741 105.166 69.4864L110.12 71.4764C110.576 71.6422 111.094 71.4764 111.343 71.0203L115.323 64.1382C115.572 63.6822 115.468 63.164 115.074 62.8737L110.908 59.5985ZM96.1069 65.1125C92.0025 65.1125 88.6444 61.7544 88.6444 57.65C88.6444 53.5456 92.0025 50.1875 96.1069 50.1875C100.211 50.1875 103.569 53.5456 103.569 57.65C103.569 61.7544 100.211 65.1125 96.1069 65.1125Z" fill="#002E59"/>
</svg>
