<svg width="800" height="800" viewBox="0 0 800 800" fill="none" xmlns="http://www.w3.org/2000/svg">
<path d="M290.667 266.667H509.333M236.333 133.333H563.667M509.333 533.333H290.667M563.667 666.667H236.333" stroke="#FF7A01" stroke-width="66.6667" stroke-linecap="round" stroke-linejoin="round"/>
<path d="M233.333 700V694.333C233.343 635.059 248.699 576.797 277.906 525.218C307.113 473.639 349.175 430.5 400 400C450.692 369.353 492.649 326.182 521.837 274.636C551.025 223.09 566.463 164.902 566.667 105.667V100" stroke="#002E59" stroke-width="66.6667" stroke-linecap="round" stroke-linejoin="round"/>
<path d="M566.667 700V694.333C566.657 635.059 551.301 576.797 522.094 525.218C492.887 473.639 450.825 430.5 400 400C349.175 369.5 307.113 326.361 277.906 274.782C248.699 223.203 233.343 164.941 233.333 105.667V100" stroke="#002E59" stroke-width="66.6667" stroke-linecap="round" stroke-linejoin="round"/>
</svg>
