<svg width="800" height="800" viewBox="0 0 800 800" fill="none" xmlns="http://www.w3.org/2000/svg">
<path d="M666.667 533.333H133.333C124.493 533.333 116.014 529.821 109.763 523.57C103.512 517.319 100 508.841 100 500V166.667C100 157.826 103.512 149.348 109.763 143.096C116.014 136.845 124.493 133.333 133.333 133.333H666.667C675.507 133.333 683.986 136.845 690.237 143.096C696.488 149.348 700 157.826 700 166.667V500C700 508.841 696.488 517.319 690.237 523.57C683.986 529.821 675.507 533.333 666.667 533.333Z" fill="#FF7A01"/>
<path d="M200 666.667H600M266.667 666.667L300 533.333H500L533.333 666.667H266.667ZM700 500V166.667C700 157.826 696.488 149.348 690.237 143.096C683.986 136.845 675.507 133.333 666.667 133.333H133.333C124.493 133.333 116.014 136.845 109.763 143.096C103.512 149.348 100 157.826 100 166.667V500C100 508.841 103.512 517.319 109.763 523.57C116.014 529.821 124.493 533.333 133.333 533.333H666.667C675.507 533.333 683.986 529.821 690.237 523.57C696.488 517.319 700 508.841 700 500Z" stroke="#002E59" stroke-width="66.6667" stroke-linecap="round" stroke-linejoin="round"/>
</svg>
