<svg width="800" height="800" viewBox="0 0 800 800" fill="none" xmlns="http://www.w3.org/2000/svg">
<path d="M285.345 227.065L639.517 132.165L691.281 325.35L337.108 420.25C328.569 422.538 319.471 421.34 311.814 416.92C304.158 412.5 298.572 405.219 296.284 396.68L261.774 267.89C259.486 259.35 260.684 250.252 265.104 242.596C269.525 234.94 276.805 229.353 285.345 227.065Z" fill="#FF7A01"/>
<path d="M333.333 700L433.333 400L533.333 700M262 266.667C260.045 258.323 261.378 249.547 265.723 242.161C270.068 234.774 277.091 229.345 285.333 227L639.667 133.333L691.333 325.333L336.333 419C332.087 420.158 327.654 420.463 323.289 419.898C318.924 419.333 314.714 417.909 310.902 415.709C307.091 413.509 303.752 410.575 301.08 407.078C298.408 403.581 296.455 399.589 295.333 395.333L262 266.667ZM262 266.667L295 396.667L133.333 440L100 311.333L262 266.667ZM700 357.667L631 100" stroke="#002E59" stroke-width="66.6667" stroke-linecap="round" stroke-linejoin="round"/>
</svg>
