<svg width="800" height="800" viewBox="0 0 800 800" fill="none" xmlns="http://www.w3.org/2000/svg">
<path d="M360 440H440C514.261 440 585.48 469.5 637.99 522.01C690.5 574.52 720 645.739 720 720C720 730.609 715.786 740.783 708.284 748.284C700.783 755.786 690.609 760 680 760H120C109.391 760 99.2172 755.786 91.7157 748.284C84.2143 740.783 80 730.609 80 720C80 645.739 109.5 574.52 162.01 522.01C214.52 469.5 285.739 440 360 440Z" fill="#FF7A01"/>
<path d="M720 720C720 730.609 715.786 740.783 708.284 748.284C700.783 755.786 690.609 760 680 760H120C109.391 760 99.2172 755.786 91.7157 748.284C84.2143 740.783 80 730.609 80 720C80 645.739 109.5 574.52 162.01 522.01C214.52 469.5 285.739 440 360 440H440C514.261 440 585.48 469.5 637.99 522.01C690.5 574.52 720 645.739 720 720ZM400 40C360.444 40 321.776 51.7298 288.886 73.7061C255.996 95.6824 230.362 126.918 215.224 163.463C200.087 200.009 196.126 240.222 203.843 279.018C211.56 317.814 230.608 353.451 258.579 381.421C286.549 409.392 322.186 428.44 360.982 436.157C399.778 443.874 439.991 439.913 476.537 424.776C513.082 409.638 544.318 384.004 566.294 351.114C588.27 318.224 600 279.556 600 240C600 186.957 578.929 136.086 541.421 98.5786C503.914 61.0714 453.043 40 400 40Z" stroke="#002E59" stroke-width="80" stroke-linecap="round" stroke-linejoin="round"/>
</svg>
