<svg width="800" height="800" viewBox="0 0 800 800" fill="none" xmlns="http://www.w3.org/2000/svg">
<path d="M400 700C455.228 700 500 565.685 500 400C500 234.315 455.228 100 400 100C344.772 100 300 234.315 300 400C300 565.685 344.772 700 400 700Z" fill="#FF7A01"/>
<path d="M400 100C340.666 100 282.664 117.595 233.329 150.559C183.994 183.524 145.542 230.377 122.836 285.195C100.13 340.013 94.1889 400.333 105.764 458.527C117.34 516.721 145.912 570.176 187.868 612.132C229.824 654.088 283.279 682.66 341.473 694.236C399.667 705.811 459.987 699.87 514.805 677.164C569.623 654.458 616.476 616.006 649.441 566.671C682.405 517.336 700 459.334 700 400C700 320.435 668.393 244.129 612.132 187.868C555.871 131.607 479.565 100 400 100ZM400 100C344.667 100 300 233.333 300 400C300 566.667 344.667 700 400 700C455.333 700 500 566.667 500 400C500 233.333 455.333 100 400 100Z" stroke="#002E59" stroke-width="66.6667" stroke-linecap="round" stroke-linejoin="round"/>
<path d="M640 580C597.678 544.459 546.953 520.358 492.667 510C431.612 496.634 368.388 496.634 307.333 510C253.047 520.358 202.322 544.459 160 580" stroke="#002E59" stroke-width="66.6667" stroke-linecap="round" stroke-linejoin="round"/>
<path d="M640 220C597.678 255.541 546.953 279.642 492.667 290C462.248 296.78 431.165 300.134 400 300C368.835 300.134 337.752 296.78 307.333 290C253.047 279.642 202.322 255.541 160 220" stroke="#002E59" stroke-width="66.6667" stroke-linecap="round" stroke-linejoin="round"/>
</svg>
